<?xml version="1.0" encoding="UTF-8"?>
<svg id="Layer_3" data-name="Layer 3" xmlns="http://www.w3.org/2000/svg" viewBox="0 0 147.44 60.31">
  <defs>
    <style>
      .cls-1 {
        fill: #fff;
      }
    </style>
  </defs>
  <polygon class="cls-1" points="17.9 30.94 17.9 26.78 12.56 26.78 12.56 30.94 10.4 30.94 10.4 36.02 12.56 36.02 12.56 52.22 17.9 52.22 17.9 36.02 21.77 36.02 21.77 30.94 17.9 30.94"/>
  <path class="cls-1" d="m36.85,36.44c-1.13-.72-2.42-1.12-3.63-1.12-2.04,0-3.82.85-5.07,2.35v-1.74h-5.34v16.29h5.34v-5.12c0-4.64,1.23-6.61,4.11-6.61.83,0,1.44.21,1.96.67l.67.59,2.48-4.97-.53-.33Z"/>
  <path class="cls-1" d="m43.27,25.21c0,1.5-1.23,2.68-2.73,2.68s-2.73-1.19-2.73-2.68,1.23-2.77,2.73-2.77,2.73,1.23,2.73,2.77Z"/>
  <rect class="cls-1" x="37.87" y="35.94" width="5.34" height="16.29"/>
  <path class="cls-1" d="m45.45,34.26h-3.07c-8.13,0-15.01-3.47-15.01-12.51,0-7.85,4.09-12.39,17.28-12.39h6.14v42.87h-5.34v-17.97Zm0-20.13h-1.42c-5.29,0-11.65.8-11.65,7.51s5.91,7.84,11.37,7.84h1.71s0-15.35,0-15.35Z"/>
  <path class="cls-1" d="m59.78,27.32h3.07c8.13,0,15.01,3.47,15.01,12.51,0,7.85-4.09,12.39-17.28,12.39h-6.14V9.36h5.34v17.97Zm0,20.13h1.42c5.29,0,11.65-.8,11.65-7.51s-5.91-7.84-11.37-7.84h-1.71v15.35Z"/>
  <g>
    <path class="cls-1" d="m88.63,34.92c-5.15,0-9.18,4.02-9.18,9.15s4.03,9.15,9.18,9.15,9.18-4.02,9.18-9.15-4.03-9.15-9.18-9.15Zm4.24,9.15c0,2.39-1.9,4.33-4.24,4.33s-4.24-1.94-4.24-4.33,1.9-4.34,4.24-4.34,4.24,1.95,4.24,4.34Z"/>
    <path class="cls-1" d="m109.04,34.92c-5.15,0-9.18,4.02-9.18,9.15s4.03,9.15,9.18,9.15,9.18-4.02,9.18-9.15-4.03-9.15-9.18-9.15Zm4.24,9.15c0,2.39-1.9,4.33-4.24,4.33s-4.24-1.94-4.24-4.33,1.9-4.34,4.24-4.34,4.24,1.95,4.24,4.34Z"/>
  </g>
  <polygon class="cls-1" points="129.45 40.83 134.28 36.01 127.12 36.01 125.36 38.05 125.35 26.78 120 26.78 119.99 52.22 125.33 52.22 125.36 43.89 133 52.22 140.48 52.22 129.45 40.83"/>
  <path class="cls-1" d="m67.41,36.46c0,1.5-1.23,2.68-2.73,2.68s-2.73-1.19-2.73-2.68,1.23-2.77,2.73-2.77,2.73,1.23,2.73,2.77Z"/>
  <rect class="cls-1" x="92.34" y="-10.95" width="5.35" height="60.67" transform="translate(75.63 114.4) rotate(-90)"/>
</svg>